<?xml version="1.0" encoding="UTF-8"?><svg xmlns="http://www.w3.org/2000/svg" height="4rem" viewBox="0 0 309 305"><defs><style>.cls-1{fill:#a8d4e4;}.cls-2{fill:#840073;}.cls-3{fill:#a966a4;}.cls-4{fill:#54004e;}.cls-5{fill:#8d3386;}.cls-6{fill:#51aaca;}</style></defs><g id="Layer_2"><polygon class="cls-2" points="159.49 17.19 37.44 87.66 37.44 228.58 159.49 299.05 281.53 228.58 281.53 87.66 159.49 17.19"/><path class="cls-2" d="m157.24,180.67c-2.43-1.85-5.16-3.21-8.02-4.38l8.02,4.38Z"/><polygon class="cls-4" points="159.49 39.85 57.06 98.98 57.06 217.26 159.49 276.39 261.92 217.26 261.92 98.98 159.49 39.85"/></g><g id="left"><polygon class="cls-6" points="79.39 186.81 25.59 221.93 25.72 222.37 152.41 306 127.68 218.69 79.39 186.81"/><path class="cls-1" d="m25.73,151.09l-.07.25-10.13,35.06-7.49,25.94,10.26,5.61c1.47.6,2.88,1.3,4.13,2.26l3.16,1.73,53.8-35.12,48.27-31.51,25.19-87.19L25.73,151.09Z"/><path class="cls-2" d="m283.43,154.08c1.25-.95,2.66-1.65,4.13-2.26l-4.13,2.26Z"/></g><g id="right"><polygon class="cls-5" points="226.47 120.69 280.27 155.81 280.14 156.25 153.45 239.89 178.18 152.57 226.47 120.69"/><path class="cls-3" d="m280.13,84.97l.07.25,10.13,35.06,7.49,25.94-10.26,5.61c-1.47.6-2.88,1.3-4.13,2.26l-3.16,1.73-53.8-35.12-48.27-31.51L153.01,2l127.13,82.97Z"/></g></svg>